# xmcd
#
# Track frame offsets:
#	150
#	14601
#	24912
#	36686
#	51846
#	66302
#	71385
#	89351
#	105286
#	112635
#	123861
#
# Disc length: 1830 seconds
#
# Revision: 2
# Processed by: cddbd v1.5.1PL0 Copyright (c) Steve Scherf et al.
# Submitted via: audiograbber 1.80
#
DISCID=8807240b
DTITLE=3FACES - Slunecni
DYEAR=1900
DGENRE=
TTITLE0=Slunecni
TTITLE1=Kocovni
TTITLE2=Oblacni
TTITLE3=Vodni
TTITLE4=Nocni
TTITLE5=Zimni
TTITLE6=Komorni
TTITLE7=Horni dolni
TTITLE8=Ranni
TTITLE9=Lesni
TTITLE10=Posledni
EXTD=
EXTT0=
EXTT1=
EXTT2=
EXTT3=
EXTT4=
EXTT5=
EXTT6=
EXTT7=
EXTT8=
EXTT9=
EXTT10=
PLAYORDER=
